%
M48
M72
T01C0.0120
T02C0.0256
T03C0.0400
T04C0.1200
%
T01
X8234Y5325
X8234Y6375
X8584Y6425
X9334Y6375
X8384Y7625
X8384Y8025
X8684Y8875
X9034Y8375
X8384Y9840
X8384Y10175
X7234Y9575
X6534Y8875
X7084Y7495
X5784Y6625
X10034Y10475
X10034Y11125
X11884Y11275
X11914Y11725
X12884Y11575
X12884Y11275
X13684Y11525
X13684Y10725
X12884Y10725
X12884Y9925
X12884Y9575
X12884Y9025
X12384Y9125
X12234Y8675
X12234Y8325
X11734Y8375
X11334Y8375
X11334Y7875
X11734Y7825
X11834Y7375
X11334Y7375
X11934Y6875
X11634Y6125
X11334Y6125
X12234Y7775
X11734Y8875
X11334Y8875
X11834Y9375
X13684Y9025
X13684Y9875
X14534Y9875
X15334Y9875
X16134Y9875
X16134Y10725
X15334Y10725
X14534Y10725
X14534Y11525
X15334Y11525
X16134Y11525
X16134Y12375
X15334Y12375
X14534Y12375
X13684Y12375
X12884Y12375
X12884Y13125
X12884Y13475
X12884Y14025
X13684Y14025
X13684Y13225
X14534Y13225
X14534Y14025
X15334Y14025
X15334Y13225
X16134Y13225
X16134Y14025
X16134Y14875
X15334Y14875
X14534Y14875
X13684Y14875
X12884Y14875
X12834Y15725
X12284Y16025
X12284Y16475
X13684Y15725
X14534Y15725
X15334Y15725
X16134Y15725
X16984Y15725
X17784Y15575
X18134Y15575
X18484Y15575
X18834Y15575
X18834Y15175
X18834Y14825
X18834Y14425
X18834Y14075
X18834Y13375
X18834Y12875
X17784Y13225
X16984Y13225
X16984Y14025
X17784Y14025
X17784Y14325
X17784Y14775
X17784Y15175
X16984Y14875
X18434Y16075
X18434Y16475
X17834Y16875
X17334Y16875
X16834Y16875
X17334Y18125
X15234Y18115
X14334Y17875
X13834Y17875
X12736Y19125
X12334Y17875
X11834Y17875
X10834Y18375
X10334Y18375
X10834Y18875
X11334Y19125
X11334Y19425
X9434Y18375
X8584Y18205
X9334Y17375
X10334Y17375
X8484Y15575
X8284Y14725
X8334Y13875
X8334Y13375
X9084Y14175
X9484Y14075
X9834Y14375
X10334Y14375
X11634Y14825
X11784Y15375
X13834Y16875
X14334Y16875
X14834Y16875
X15334Y16875
X14334Y19375
X13334Y23575
X13334Y24075
X11634Y24325
X11334Y24325
X11934Y25075
X11834Y25575
X11734Y26025
X11334Y26075
X11334Y25575
X12234Y25975
X12234Y26525
X12234Y26875
X12384Y27325
X12884Y27225
X12884Y27775
X12884Y28125
X13684Y28075
X13684Y27225
X14534Y27225
X15334Y27225
X16134Y27225
X16134Y28075
X15334Y28075
X14534Y28075
X14534Y28925
X15334Y28925
X16134Y28925
X16134Y29725
X15334Y29725
X14534Y29725
X13684Y29725
X12884Y29775
X12884Y29475
X12884Y28925
X13684Y28925
X11884Y29475
X11914Y29925
X12884Y30575
X12884Y31325
X12884Y31675
X12884Y32225
X13684Y32225
X13684Y31425
X13684Y30575
X14534Y30575
X15334Y30575
X16134Y30575
X16134Y31425
X15334Y31425
X14534Y31425
X14534Y32225
X15334Y32225
X16134Y32225
X16134Y33075
X15334Y33075
X14534Y33075
X13684Y33075
X12884Y33075
X12834Y33925
X12284Y34225
X12284Y34675
X11784Y33575
X11634Y33025
X10334Y32575
X9834Y32575
X9484Y32275
X9084Y32375
X8334Y32075
X8334Y31575
X8284Y32925
X8484Y33775
X9334Y35575
X10334Y35575
X10334Y36575
X10834Y36575
X10834Y37075
X11334Y37325
X11334Y37625
X12736Y37325
X14334Y37575
X15234Y36315
X14334Y36075
X13834Y36075
X13834Y35075
X14334Y35075
X14834Y35075
X15334Y35075
X15334Y33925
X14534Y33925
X13684Y33925
X16134Y33925
X16984Y33925
X17784Y33775
X18134Y33775
X18484Y33775
X18834Y33775
X18834Y33375
X18834Y33025
X18834Y32625
X18834Y32275
X18834Y31575
X18834Y31075
X19734Y31875
X20484Y31625
X21236Y31477
X21189Y31025
X21184Y30675
X20384Y30025
X19934Y30025
X19534Y30025
X18784Y29875
X18784Y29225
X19534Y29075
X19834Y29125
X20234Y29125
X20584Y29125
X20934Y29025
X20934Y28675
X20834Y29525
X19534Y28725
X19584Y27675
X19234Y27675
X19234Y27325
X19584Y27325
X19884Y27225
X20234Y27225
X20584Y27225
X20934Y27225
X20934Y27575
X19084Y26925
X19084Y26575
X18484Y26525
X18484Y26875
X18484Y27325
X18134Y27325
X17784Y27325
X17784Y27775
X17784Y28225
X17784Y28625
X17784Y28925
X16984Y28925
X16984Y29725
X17784Y29725
X17784Y30575
X16984Y30575
X16984Y31425
X17784Y31425
X17784Y32225
X17784Y32525
X17784Y32975
X17784Y33375
X16984Y33075
X16984Y32225
X18434Y34275
X18434Y34675
X17834Y35075
X17334Y35075
X16834Y35075
X17334Y36325
X19834Y38075
X20084Y34975
X20834Y34975
X21236Y34975
X21584Y34975
X21834Y31825
X22984Y29375
X24434Y27775
X23734Y27075
X24284Y25695
X25584Y25825
X25584Y26225
X26234Y26575
X25884Y27075
X25584Y28040
X25584Y28375
X27234Y28675
X27234Y29325
X28034Y30875
X29114Y29925
X29084Y29475
X30084Y29475
X30084Y29775
X30884Y29725
X31734Y29725
X31734Y28925
X30884Y28925
X30084Y28925
X30084Y28125
X30084Y27775
X30084Y27225
X29584Y27325
X29434Y26875
X29434Y26525
X28934Y26575
X28534Y26575
X28534Y26075
X28934Y26025
X29034Y25575
X28534Y25575
X29134Y25075
X28834Y24325
X28534Y24325
X26534Y24575
X25784Y24625
X25434Y24575
X25434Y23525
X22984Y24825
X18684Y25075
X18334Y25075
X18334Y25575
X18634Y25575
X17834Y26075
X17084Y25975
X16984Y27225
X16984Y28075
X18834Y27675
X18834Y27325
X18184Y24525
X18334Y23705
X17334Y23575
X15034Y23775
X15434Y25375
X15434Y25725
X15334Y26075
X14834Y25975
X11734Y26575
X11334Y26575
X11334Y27075
X11734Y27075
X11834Y27575
X10034Y28675
X10034Y29325
X10834Y30875
X8384Y28375
X8384Y28040
X7234Y27775
X6534Y27075
X7084Y25695
X8384Y25825
X8384Y26225
X9034Y26575
X8684Y27075
X8584Y24625
X8234Y24575
X8234Y23525
X9334Y24575
X5784Y24825
X5784Y29375
X11834Y36075
X12334Y36075
X9434Y36575
X8584Y36405
X8834Y37785
X8326Y38083
X25526Y38083
X26034Y37785
X26634Y36575
X27534Y36575
X28034Y36575
X28034Y37075
X28534Y37325
X28534Y37625
X29936Y37325
X29534Y36075
X29034Y36075
X29484Y34675
X29484Y34225
X30034Y33925
X30884Y33925
X31734Y33925
X32534Y33925
X33334Y33925
X34184Y33925
X34984Y33775
X35334Y33775
X35684Y33775
X36034Y33775
X36034Y33375
X36034Y33025
X36034Y32625
X36034Y32275
X36034Y31575
X36034Y31075
X36934Y31875
X37684Y31625
X38389Y31025
X38384Y30675
X38436Y31477
X39034Y31825
X37584Y30025
X37134Y30025
X36734Y30025
X37034Y29125
X36734Y29075
X36734Y28725
X37434Y29125
X37784Y29125
X38134Y29025
X38134Y28675
X38034Y29525
X40184Y29375
X41634Y27775
X40934Y27075
X41484Y25695
X42784Y25825
X42784Y26225
X43434Y26575
X43084Y27075
X42784Y28040
X42784Y28375
X44434Y28675
X44434Y29325
X45234Y30875
X46314Y29925
X46284Y29475
X47284Y29475
X47284Y29775
X47284Y30575
X47284Y31325
X47284Y31675
X47284Y32225
X48084Y32225
X48934Y32225
X49734Y32225
X49734Y31425
X48934Y31425
X48084Y31425
X48084Y30575
X48934Y30575
X49734Y30575
X50534Y30575
X50534Y31425
X51384Y31425
X52184Y31425
X52184Y30575
X51384Y30575
X51384Y29725
X52184Y29725
X52184Y28925
X52184Y28625
X52184Y28225
X52184Y27775
X52184Y27325
X52534Y27325
X52884Y27325
X53234Y27325
X53234Y27675
X53634Y27675
X53634Y27325
X53984Y27325
X54284Y27225
X54634Y27225
X54984Y27225
X55334Y27225
X55334Y27575
X55334Y28675
X55334Y29025
X54984Y29125
X54634Y29125
X54234Y29125
X53934Y29075
X53934Y28725
X53184Y29225
X53184Y29875
X53934Y30025
X54334Y30025
X54784Y30025
X55234Y29525
X55584Y30675
X55589Y31025
X55636Y31477
X56234Y31825
X54884Y31625
X54134Y31875
X53234Y31575
X53234Y31075
X53234Y32275
X53234Y32625
X53234Y33025
X53234Y33375
X53234Y33775
X52884Y33775
X52534Y33775
X52184Y33775
X52184Y33375
X52184Y32975
X52184Y32525
X52184Y32225
X51384Y32225
X50534Y32225
X50534Y33075
X51384Y33075
X51384Y33925
X50534Y33925
X49734Y33925
X48934Y33925
X48084Y33925
X47234Y33925
X46684Y34225
X46684Y34675
X46184Y33575
X46034Y33025
X47284Y33075
X48084Y33075
X48934Y33075
X49734Y33075
X49734Y35075
X49234Y35075
X48734Y35075
X48234Y35075
X48234Y36075
X48734Y36075
X49634Y36315
X48734Y37575
X47136Y37325
X45734Y37325
X45734Y37625
X45234Y37075
X45234Y36575
X44734Y36575
X43834Y36575
X42984Y36405
X43734Y35575
X44734Y35575
X46234Y36075
X46734Y36075
X43234Y37785
X42726Y38083
X38784Y34975
X38436Y34975
X38034Y34975
X37284Y34975
X35634Y34675
X35634Y34275
X35034Y35075
X34534Y35075
X34034Y35075
X32534Y35075
X32034Y35075
X31534Y35075
X31034Y35075
X31034Y36075
X31534Y36075
X32434Y36315
X31534Y37575
X34534Y36325
X37034Y38075
X34984Y33375
X34984Y32975
X34984Y32525
X34984Y32225
X34184Y32225
X33334Y32225
X32534Y32225
X31734Y32225
X30884Y32225
X30084Y32225
X30084Y31675
X30084Y31325
X30084Y30575
X30884Y30575
X30884Y31425
X31734Y31425
X31734Y30575
X32534Y30575
X33334Y30575
X33334Y31425
X32534Y31425
X34184Y31425
X34184Y30575
X34984Y30575
X34984Y31425
X34984Y29725
X35984Y29875
X35984Y29225
X34984Y28925
X34984Y28625
X34984Y28225
X34984Y27775
X34984Y27325
X35334Y27325
X35684Y27325
X36034Y27325
X36034Y27675
X36434Y27675
X36434Y27325
X36784Y27325
X37084Y27225
X37434Y27225
X37784Y27225
X38134Y27225
X38134Y27575
X36784Y27675
X36284Y26925
X36284Y26575
X35684Y26525
X35684Y26875
X35034Y26075
X35534Y25575
X35834Y25575
X35884Y25075
X35534Y25075
X35384Y24525
X35534Y23705
X34534Y23575
X32234Y23775
X30534Y23575
X30534Y24075
X29434Y25975
X28934Y27075
X28534Y27075
X29034Y27575
X30884Y27225
X30884Y28075
X31734Y28075
X31734Y27225
X32534Y27225
X33334Y27225
X33334Y28075
X32534Y28075
X32534Y28925
X33334Y28925
X34184Y28925
X34184Y29725
X33334Y29725
X32534Y29725
X34184Y28075
X34184Y27225
X34284Y25975
X32634Y25725
X32634Y25375
X32534Y26075
X32034Y25975
X25534Y31575
X25534Y32075
X26284Y32375
X26684Y32275
X27034Y32575
X27534Y32575
X28834Y33025
X28984Y33575
X30084Y33075
X30884Y33075
X31734Y33075
X32534Y33075
X33334Y33075
X34184Y33075
X27534Y35575
X26534Y35575
X25784Y36405
X25684Y33775
X25484Y32925
X40184Y24825
X42634Y24575
X42984Y24625
X43734Y24575
X42634Y23525
X45734Y24325
X46034Y24325
X46334Y25075
X46234Y25575
X46134Y26025
X45734Y26075
X45734Y25575
X46634Y25975
X46634Y26525
X46634Y26875
X46784Y27325
X47284Y27225
X47284Y27775
X47284Y28125
X46234Y27575
X46134Y27075
X45734Y27075
X45734Y26575
X46134Y26575
X48084Y27225
X48084Y28075
X48934Y28075
X49734Y28075
X49734Y27225
X48934Y27225
X49234Y25975
X49734Y26075
X49834Y25725
X49834Y25375
X51484Y25975
X52234Y26075
X52734Y25575
X53034Y25575
X53084Y25075
X52734Y25075
X52584Y24525
X52734Y23705
X51734Y23575
X49434Y23775
X47734Y23575
X47734Y24075
X50534Y27225
X50534Y28075
X51384Y28075
X51384Y27225
X52884Y26875
X52884Y26525
X53484Y26575
X53484Y26925
X53984Y27675
X51384Y28925
X50534Y28925
X49734Y28925
X48934Y28925
X48084Y28925
X47284Y28925
X48084Y29725
X48934Y29725
X49734Y29725
X50534Y29725
X52834Y34275
X52834Y34675
X52234Y35075
X51734Y35075
X51234Y35075
X51734Y36325
X54234Y38075
X54484Y34975
X55234Y34975
X55636Y34975
X55984Y34975
X44734Y32575
X44234Y32575
X43884Y32275
X43484Y32375
X42734Y32075
X42734Y31575
X42684Y32925
X42884Y33775
X42726Y19883
X43234Y19585
X43834Y18375
X44734Y18375
X45234Y18375
X45234Y18875
X45734Y19125
X45734Y19425
X47136Y19125
X46734Y17875
X46234Y17875
X46684Y16475
X46684Y16025
X47234Y15725
X48084Y15725
X48934Y15725
X49734Y15725
X50534Y15725
X51384Y15725
X52184Y15575
X52534Y15575
X52884Y15575
X53234Y15575
X53234Y15175
X53234Y14825
X53234Y14425
X53234Y14075
X53234Y13375
X53234Y12875
X52184Y13225
X51384Y13225
X51384Y14025
X52184Y14025
X52184Y14325
X52184Y14775
X52184Y15175
X51384Y14875
X50534Y14875
X49734Y14875
X48934Y14875
X48084Y14875
X47284Y14875
X47284Y14025
X47284Y13475
X47284Y13125
X47284Y12375
X47284Y11575
X47284Y11275
X46284Y11275
X46314Y11725
X47284Y10725
X47284Y9925
X47284Y9575
X47284Y9025
X46784Y9125
X46634Y8675
X46634Y8325
X46134Y8375
X45734Y8375
X45734Y7875
X46134Y7825
X46234Y7375
X45734Y7375
X46334Y6875
X46034Y6125
X45734Y6125
X46634Y7775
X46134Y8875
X45734Y8875
X46234Y9375
X48084Y9025
X48934Y9025
X49734Y9025
X50534Y9025
X51384Y9025
X52184Y9125
X52534Y9125
X52884Y9125
X53234Y9125
X53234Y9475
X53634Y9475
X53634Y9125
X53984Y9125
X54284Y9025
X54634Y9025
X54984Y9025
X55334Y9025
X55334Y9375
X55334Y10475
X55334Y10825
X54984Y10925
X54634Y10925
X54234Y10925
X53934Y10875
X53934Y10525
X53184Y11025
X53184Y11675
X53934Y11825
X54334Y11825
X54784Y11825
X55234Y11325
X55584Y12475
X55589Y12825
X55636Y13277
X56234Y13625
X54884Y13425
X54134Y13675
X52184Y12375
X51384Y12375
X50534Y12375
X49734Y12375
X48934Y12375
X48084Y12375
X48084Y11525
X48934Y11525
X49734Y11525
X49734Y10725
X48934Y10725
X48084Y10725
X48084Y9875
X48934Y9875
X49734Y9875
X50534Y9875
X50534Y10725
X51384Y10725
X52184Y10725
X52184Y10425
X52184Y10025
X52184Y9575
X51384Y9875
X51384Y11525
X52184Y11525
X50534Y11525
X50534Y13225
X50534Y14025
X49734Y14025
X48934Y14025
X48934Y13225
X49734Y13225
X48084Y13225
X48084Y14025
X46034Y14825
X46184Y15375
X44734Y14375
X44234Y14375
X43884Y14075
X43484Y14175
X42734Y13875
X42734Y13375
X42684Y14725
X42884Y15575
X43734Y17375
X42984Y18205
X44734Y17375
X48234Y16875
X48734Y16875
X49234Y16875
X49734Y16875
X49634Y18115
X48734Y17875
X48234Y17875
X48734Y19375
X51734Y18125
X51734Y16875
X51234Y16875
X52234Y16875
X52834Y16475
X52834Y16075
X54484Y16775
X55234Y16775
X55636Y16775
X55984Y16775
X54234Y19875
X45234Y12675
X44434Y11125
X44434Y10475
X42784Y10175
X42784Y9840
X43084Y8875
X43434Y8375
X42784Y8025
X42784Y7625
X41484Y7495
X42634Y6375
X42984Y6425
X43734Y6375
X42634Y5325
X40184Y6625
X40934Y8875
X41634Y9575
X40184Y11175
X38134Y10825
X38134Y10475
X37784Y10925
X37434Y10925
X37034Y10925
X36734Y10875
X36734Y10525
X35984Y11025
X35984Y11675
X34984Y11525
X34184Y11525
X33334Y11525
X32534Y11525
X31734Y11525
X30884Y11525
X30084Y11575
X30084Y11275
X30084Y10725
X30084Y9925
X30084Y9575
X30084Y9025
X29584Y9125
X29434Y8675
X29434Y8325
X28934Y8375
X28534Y8375
X28534Y7875
X28934Y7825
X29034Y7375
X28534Y7375
X29134Y6875
X28834Y6125
X28534Y6125
X29434Y7775
X28934Y8875
X28534Y8875
X29034Y9375
X30884Y9025
X31734Y9025
X32534Y9025
X33334Y9025
X34184Y9025
X34984Y9125
X35334Y9125
X35684Y9125
X36034Y9125
X36034Y9475
X36434Y9475
X36434Y9125
X36784Y9125
X37084Y9025
X37434Y9025
X37784Y9025
X38134Y9025
X38134Y9375
X36784Y9475
X36284Y8725
X36284Y8375
X35684Y8325
X35684Y8675
X35034Y7875
X35534Y7375
X35834Y7375
X35884Y6875
X35534Y6875
X35384Y6325
X35534Y5505
X34534Y5375
X32234Y5575
X30534Y5375
X30534Y5875
X32034Y7775
X32534Y7875
X32634Y7525
X32634Y7175
X34284Y7775
X34984Y9575
X34984Y10025
X34984Y10425
X34984Y10725
X34184Y10725
X33334Y10725
X32534Y10725
X32534Y9875
X33334Y9875
X34184Y9875
X31734Y9875
X30884Y9875
X30884Y10725
X31734Y10725
X31734Y12375
X30884Y12375
X30084Y12375
X30084Y13125
X30084Y13475
X30084Y14025
X30884Y14025
X30884Y13225
X31734Y13225
X31734Y14025
X32534Y14025
X32534Y13225
X33334Y13225
X33334Y14025
X34184Y14025
X34184Y13225
X34984Y13225
X34984Y14025
X34984Y14325
X34984Y14775
X34984Y15175
X34984Y15575
X35334Y15575
X35684Y15575
X36034Y15575
X36034Y15175
X36034Y14825
X36034Y14425
X36034Y14075
X36034Y13375
X36034Y12875
X34984Y12375
X34184Y12375
X33334Y12375
X32534Y12375
X32534Y14875
X33334Y14875
X34184Y14875
X34184Y15725
X33334Y15725
X32534Y15725
X31734Y15725
X30884Y15725
X30034Y15725
X29484Y16025
X29484Y16475
X31034Y16875
X31534Y16875
X32034Y16875
X32534Y16875
X34034Y16875
X34534Y16875
X35034Y16875
X35634Y16475
X35634Y16075
X37284Y16775
X38034Y16775
X38436Y16775
X38784Y16775
X39034Y13625
X38436Y13277
X38389Y12825
X38384Y12475
X37584Y11825
X37134Y11825
X36734Y11825
X38034Y11325
X37684Y13425
X36934Y13675
X34534Y18125
X32434Y18115
X31534Y17875
X31034Y17875
X29534Y17875
X29034Y17875
X28034Y18375
X27534Y18375
X28034Y18875
X28534Y19125
X28534Y19425
X29936Y19125
X31534Y19375
X27534Y17375
X26534Y17375
X26634Y18375
X25784Y18205
X26034Y19585
X25526Y19883
X21584Y16775
X21236Y16775
X20834Y16775
X20084Y16775
X19734Y13675
X20484Y13425
X21236Y13277
X21189Y12825
X21184Y12475
X20384Y11825
X19934Y11825
X19534Y11825
X18784Y11675
X18784Y11025
X19534Y10875
X19834Y10925
X20234Y10925
X20584Y10925
X20934Y10825
X20934Y10475
X20834Y11325
X19534Y10525
X19584Y9475
X19234Y9475
X19234Y9125
X19584Y9125
X19884Y9025
X20234Y9025
X20584Y9025
X20934Y9025
X20934Y9375
X19084Y8725
X19084Y8375
X18484Y8325
X18484Y8675
X18484Y9125
X18134Y9125
X17784Y9125
X17784Y9575
X17784Y10025
X17784Y10425
X17784Y10725
X16984Y10725
X16984Y9875
X16984Y9025
X16134Y9025
X15334Y9025
X14534Y9025
X14834Y7775
X15334Y7875
X15434Y7525
X15434Y7175
X17084Y7775
X17834Y7875
X18334Y7375
X18634Y7375
X18684Y6875
X18334Y6875
X18184Y6325
X18334Y5505
X17334Y5375
X15034Y5575
X13334Y5375
X13334Y5875
X18834Y9125
X18834Y9475
X17784Y11525
X16984Y11525
X16984Y12375
X17784Y12375
X21834Y13625
X22984Y11175
X24434Y9575
X23734Y8875
X24284Y7495
X25584Y7625
X25584Y8025
X26234Y8375
X25884Y8875
X25584Y9840
X25584Y10175
X27234Y10475
X27234Y11125
X29084Y11275
X29114Y11725
X28034Y12675
X26684Y14075
X26284Y14175
X25534Y13875
X25534Y13375
X25484Y14725
X25684Y15575
X27034Y14375
X27534Y14375
X28834Y14825
X28984Y15375
X30084Y14875
X30884Y14875
X31734Y14875
X37034Y19875
X49234Y7775
X49734Y7875
X49834Y7525
X49834Y7175
X51484Y7775
X52234Y7875
X52734Y7375
X53034Y7375
X53084Y6875
X52734Y6875
X52584Y6325
X52734Y5505
X51734Y5375
X49434Y5575
X47734Y5375
X47734Y5875
X52884Y8325
X52884Y8675
X53484Y8725
X53484Y8375
X53984Y9475
X26534Y6375
X25784Y6425
X25434Y6375
X25434Y5325
X22984Y6625
X10834Y12675
X5784Y11175
X8834Y19585
X8326Y19883
X19834Y19875
T02
X24465Y25937
X24465Y28213
X7265Y28213
X7265Y25937
X7265Y10013
X7265Y7737
X24465Y7737
X24465Y10013
X41665Y10013
X41665Y7737
X41665Y25937
X41665Y28213
T03
X40234Y30575
X40234Y31575
X40234Y32575
X40234Y33575
X40234Y34575
X40234Y35575
X36034Y38575
X35034Y38575
X34034Y38575
X33034Y38575
X32034Y38575
X31034Y38575
X30034Y38575
X29034Y38575
X28034Y38575
X23034Y35575
X23034Y34575
X23034Y33575
X23034Y32575
X23034Y31575
X23034Y30575
X19834Y22575
X18834Y22575
X17834Y22575
X16834Y22575
X15834Y22575
X14834Y22575
X13834Y22575
X12834Y22575
X11834Y22575
X10834Y22575
X10834Y20375
X11834Y20375
X12834Y20375
X13834Y20375
X14834Y20375
X15834Y20375
X16834Y20375
X17834Y20375
X18834Y20375
X23034Y17375
X23034Y16375
X23034Y15375
X23034Y14375
X23034Y13375
X23034Y12375
X19834Y4375
X18834Y4375
X17834Y4375
X16834Y4375
X15834Y4375
X14834Y4375
X13834Y4375
X12834Y4375
X11834Y4375
X10834Y4375
X5834Y12375
X5834Y13375
X5834Y14375
X5834Y15375
X5834Y16375
X5834Y17375
X5834Y30575
X5834Y31575
X5834Y32575
X5834Y33575
X5834Y34575
X5834Y35575
X10834Y38575
X11834Y38575
X12834Y38575
X13834Y38575
X14834Y38575
X15834Y38575
X16834Y38575
X17834Y38575
X18834Y38575
X28034Y22575
X29034Y22575
X30034Y22575
X31034Y22575
X32034Y22575
X33034Y22575
X34034Y22575
X35034Y22575
X36034Y22575
X37034Y22575
X36034Y20375
X35034Y20375
X34034Y20375
X33034Y20375
X32034Y20375
X31034Y20375
X30034Y20375
X29034Y20375
X28034Y20375
X40234Y17375
X40234Y16375
X40234Y15375
X40234Y14375
X40234Y13375
X40234Y12375
X37034Y4375
X36034Y4375
X35034Y4375
X34034Y4375
X33034Y4375
X32034Y4375
X31034Y4375
X30034Y4375
X29034Y4375
X28034Y4375
X45234Y4375
X46234Y4375
X47234Y4375
X48234Y4375
X49234Y4375
X50234Y4375
X51234Y4375
X52234Y4375
X53234Y4375
X54234Y4375
X53234Y20375
X52234Y20375
X51234Y20375
X50234Y20375
X49234Y20375
X48234Y20375
X47234Y20375
X46234Y20375
X45234Y20375
X45234Y22575
X46234Y22575
X47234Y22575
X48234Y22575
X49234Y22575
X50234Y22575
X51234Y22575
X52234Y22575
X53234Y22575
X54234Y22575
X53234Y38575
X52234Y38575
X51234Y38575
X50234Y38575
X49234Y38575
X48234Y38575
X47234Y38575
X46234Y38575
X45234Y38575
T04
X6334Y4875
X21334Y4875
X23534Y4875
X38534Y4875
X40734Y4875
X55734Y4875
X55734Y19875
X55734Y23075
X40734Y23075
X38534Y23075
X38534Y19875
X40734Y19875
X23534Y19875
X21334Y19875
X21334Y23075
X23534Y23075
X6334Y23075
X6334Y19875
X6334Y38075
X21334Y38075
X23534Y38075
X38534Y38075
X40734Y38075
X55734Y38075
M30
