G75*
%MOIN*%
%OFA0B0*%
%FSLAX25Y25*%
%IPPOS*%
%LPD*%
%AMOC8*
5,1,8,0,0,1.08239X$1,22.5*
%
%ADD10C,0.12800*%
%ADD11R,0.05800X0.03300*%
%ADD12C,0.00500*%
%ADD13C,0.03300*%
%ADD14C,0.03359*%
%ADD15C,0.08200*%
D10*
X0063342Y0048750D03*
X0213342Y0048750D03*
X0235342Y0048750D03*
X0385342Y0048750D03*
X0407342Y0048750D03*
X0557342Y0048750D03*
X0557342Y0198750D03*
X0557342Y0230750D03*
X0407342Y0230750D03*
X0385342Y0230750D03*
X0385342Y0198750D03*
X0407342Y0198750D03*
X0235342Y0198750D03*
X0213342Y0198750D03*
X0213342Y0230750D03*
X0235342Y0230750D03*
X0063342Y0230750D03*
X0063342Y0198750D03*
X0063342Y0380750D03*
X0213342Y0380750D03*
X0235342Y0380750D03*
X0385342Y0380750D03*
X0407342Y0380750D03*
X0557342Y0380750D03*
D11*
X0559842Y0332750D03*
X0559842Y0328750D03*
X0549842Y0328750D03*
X0549842Y0332750D03*
X0539842Y0332750D03*
X0539842Y0328750D03*
X0492342Y0255850D03*
X0492342Y0252650D03*
X0387842Y0328750D03*
X0387842Y0332750D03*
X0377842Y0332750D03*
X0377842Y0328750D03*
X0367842Y0328750D03*
X0367842Y0332750D03*
X0320342Y0255850D03*
X0320342Y0252650D03*
X0215842Y0328750D03*
X0215842Y0332750D03*
X0205842Y0332750D03*
X0205842Y0328750D03*
X0195842Y0328750D03*
X0195842Y0332750D03*
X0148342Y0255850D03*
X0148342Y0252650D03*
X0195842Y0150750D03*
X0195842Y0146750D03*
X0205842Y0146750D03*
X0205842Y0150750D03*
X0215842Y0150750D03*
X0215842Y0146750D03*
X0148342Y0073850D03*
X0148342Y0070650D03*
X0320342Y0070650D03*
X0320342Y0073850D03*
X0367842Y0146750D03*
X0367842Y0150750D03*
X0377842Y0150750D03*
X0377842Y0146750D03*
X0387842Y0146750D03*
X0387842Y0150750D03*
X0492342Y0073850D03*
X0492342Y0070650D03*
X0539842Y0146750D03*
X0539842Y0150750D03*
X0549842Y0150750D03*
X0549842Y0146750D03*
X0559842Y0146750D03*
X0559842Y0150750D03*
D12*
X0560342Y0149500D02*
X0559342Y0149500D01*
X0559342Y0148000D01*
X0560342Y0148000D01*
X0560342Y0149500D01*
X0560342Y0149420D02*
X0559342Y0149420D01*
X0559342Y0148921D02*
X0560342Y0148921D01*
X0560342Y0148422D02*
X0559342Y0148422D01*
X0550342Y0148422D02*
X0549342Y0148422D01*
X0549342Y0148000D02*
X0550342Y0148000D01*
X0550342Y0149500D01*
X0549342Y0149500D01*
X0549342Y0148000D01*
X0549342Y0148921D02*
X0550342Y0148921D01*
X0550342Y0149420D02*
X0549342Y0149420D01*
X0540342Y0149420D02*
X0539342Y0149420D01*
X0539342Y0149500D02*
X0540342Y0149500D01*
X0540342Y0148000D01*
X0539342Y0148000D01*
X0539342Y0149500D01*
X0539342Y0148921D02*
X0540342Y0148921D01*
X0540342Y0148422D02*
X0539342Y0148422D01*
X0388342Y0148422D02*
X0387342Y0148422D01*
X0387342Y0148000D02*
X0388342Y0148000D01*
X0388342Y0149500D01*
X0387342Y0149500D01*
X0387342Y0148000D01*
X0387342Y0148921D02*
X0388342Y0148921D01*
X0388342Y0149420D02*
X0387342Y0149420D01*
X0378342Y0149420D02*
X0377342Y0149420D01*
X0377342Y0149500D02*
X0378342Y0149500D01*
X0378342Y0148000D01*
X0377342Y0148000D01*
X0377342Y0149500D01*
X0377342Y0148921D02*
X0378342Y0148921D01*
X0378342Y0148422D02*
X0377342Y0148422D01*
X0368342Y0148422D02*
X0367342Y0148422D01*
X0367342Y0148000D02*
X0368342Y0148000D01*
X0368342Y0149500D01*
X0367342Y0149500D01*
X0367342Y0148000D01*
X0367342Y0148921D02*
X0368342Y0148921D01*
X0368342Y0149420D02*
X0367342Y0149420D01*
X0216342Y0149420D02*
X0215342Y0149420D01*
X0215342Y0149500D02*
X0216342Y0149500D01*
X0216342Y0148000D01*
X0215342Y0148000D01*
X0215342Y0149500D01*
X0215342Y0148921D02*
X0216342Y0148921D01*
X0216342Y0148422D02*
X0215342Y0148422D01*
X0206342Y0148422D02*
X0205342Y0148422D01*
X0205342Y0148000D02*
X0206342Y0148000D01*
X0206342Y0149500D01*
X0205342Y0149500D01*
X0205342Y0148000D01*
X0205342Y0148921D02*
X0206342Y0148921D01*
X0206342Y0149420D02*
X0205342Y0149420D01*
X0196342Y0149420D02*
X0195342Y0149420D01*
X0195342Y0149500D02*
X0196342Y0149500D01*
X0196342Y0148000D01*
X0195342Y0148000D01*
X0195342Y0149500D01*
X0195342Y0148921D02*
X0196342Y0148921D01*
X0196342Y0148422D02*
X0195342Y0148422D01*
X0195342Y0330000D02*
X0196342Y0330000D01*
X0196342Y0331500D01*
X0195342Y0331500D01*
X0195342Y0330000D01*
X0195342Y0330379D02*
X0196342Y0330379D01*
X0196342Y0330878D02*
X0195342Y0330878D01*
X0195342Y0331376D02*
X0196342Y0331376D01*
X0205342Y0331376D02*
X0206342Y0331376D01*
X0206342Y0331500D02*
X0205342Y0331500D01*
X0205342Y0330000D01*
X0206342Y0330000D01*
X0206342Y0331500D01*
X0206342Y0330878D02*
X0205342Y0330878D01*
X0205342Y0330379D02*
X0206342Y0330379D01*
X0215342Y0330379D02*
X0216342Y0330379D01*
X0216342Y0330000D02*
X0216342Y0331500D01*
X0215342Y0331500D01*
X0215342Y0330000D01*
X0216342Y0330000D01*
X0216342Y0330878D02*
X0215342Y0330878D01*
X0215342Y0331376D02*
X0216342Y0331376D01*
X0367342Y0331376D02*
X0368342Y0331376D01*
X0368342Y0331500D02*
X0367342Y0331500D01*
X0367342Y0330000D01*
X0368342Y0330000D01*
X0368342Y0331500D01*
X0368342Y0330878D02*
X0367342Y0330878D01*
X0367342Y0330379D02*
X0368342Y0330379D01*
X0377342Y0330379D02*
X0378342Y0330379D01*
X0378342Y0330000D02*
X0378342Y0331500D01*
X0377342Y0331500D01*
X0377342Y0330000D01*
X0378342Y0330000D01*
X0378342Y0330878D02*
X0377342Y0330878D01*
X0377342Y0331376D02*
X0378342Y0331376D01*
X0387342Y0331376D02*
X0388342Y0331376D01*
X0388342Y0331500D02*
X0387342Y0331500D01*
X0387342Y0330000D01*
X0388342Y0330000D01*
X0388342Y0331500D01*
X0388342Y0330878D02*
X0387342Y0330878D01*
X0387342Y0330379D02*
X0388342Y0330379D01*
X0539342Y0330379D02*
X0540342Y0330379D01*
X0540342Y0330000D02*
X0540342Y0331500D01*
X0539342Y0331500D01*
X0539342Y0330000D01*
X0540342Y0330000D01*
X0540342Y0330878D02*
X0539342Y0330878D01*
X0539342Y0331376D02*
X0540342Y0331376D01*
X0549342Y0331376D02*
X0550342Y0331376D01*
X0550342Y0331500D02*
X0549342Y0331500D01*
X0549342Y0330000D01*
X0550342Y0330000D01*
X0550342Y0331500D01*
X0550342Y0330878D02*
X0549342Y0330878D01*
X0549342Y0330379D02*
X0550342Y0330379D01*
X0559342Y0330379D02*
X0560342Y0330379D01*
X0560342Y0330000D02*
X0560342Y0331500D01*
X0559342Y0331500D01*
X0559342Y0330000D01*
X0560342Y0330000D01*
X0560342Y0330878D02*
X0559342Y0330878D01*
X0559342Y0331376D02*
X0560342Y0331376D01*
D13*
X0055842Y0041250D03*
X0227842Y0041250D03*
X0399842Y0041250D03*
X0392842Y0206250D03*
X0399842Y0223250D03*
X0564842Y0206250D03*
X0564842Y0388250D03*
X0392842Y0388250D03*
X0220842Y0388250D03*
X0227842Y0223250D03*
X0220842Y0206250D03*
X0055842Y0223250D03*
D14*
X0072653Y0259372D03*
X0072653Y0282128D03*
X0244653Y0282128D03*
X0244653Y0259372D03*
X0416653Y0259372D03*
X0416653Y0282128D03*
X0416653Y0100128D03*
X0416653Y0077372D03*
X0244653Y0077372D03*
X0244653Y0100128D03*
X0072653Y0100128D03*
X0072653Y0077372D03*
D15*
X0108342Y0043750D03*
X0118342Y0043750D03*
X0128342Y0043750D03*
X0138342Y0043750D03*
X0148342Y0043750D03*
X0158342Y0043750D03*
X0168342Y0043750D03*
X0178342Y0043750D03*
X0188342Y0043750D03*
X0198342Y0043750D03*
X0280342Y0043750D03*
X0290342Y0043750D03*
X0300342Y0043750D03*
X0310342Y0043750D03*
X0320342Y0043750D03*
X0330342Y0043750D03*
X0340342Y0043750D03*
X0350342Y0043750D03*
X0360342Y0043750D03*
X0370342Y0043750D03*
X0452342Y0043750D03*
X0462342Y0043750D03*
X0472342Y0043750D03*
X0482342Y0043750D03*
X0492342Y0043750D03*
X0502342Y0043750D03*
X0512342Y0043750D03*
X0522342Y0043750D03*
X0532342Y0043750D03*
X0542342Y0043750D03*
X0402342Y0123750D03*
X0402342Y0133750D03*
X0402342Y0143750D03*
X0402342Y0153750D03*
X0402342Y0163750D03*
X0402342Y0173750D03*
X0360342Y0203750D03*
X0350342Y0203750D03*
X0340342Y0203750D03*
X0330342Y0203750D03*
X0320342Y0203750D03*
X0310342Y0203750D03*
X0300342Y0203750D03*
X0290342Y0203750D03*
X0280342Y0203750D03*
X0280342Y0225750D03*
X0290342Y0225750D03*
X0300342Y0225750D03*
X0310342Y0225750D03*
X0320342Y0225750D03*
X0330342Y0225750D03*
X0340342Y0225750D03*
X0350342Y0225750D03*
X0360342Y0225750D03*
X0370342Y0225750D03*
X0452342Y0225750D03*
X0462342Y0225750D03*
X0472342Y0225750D03*
X0482342Y0225750D03*
X0492342Y0225750D03*
X0502342Y0225750D03*
X0512342Y0225750D03*
X0522342Y0225750D03*
X0532342Y0225750D03*
X0542342Y0225750D03*
X0532342Y0203750D03*
X0522342Y0203750D03*
X0512342Y0203750D03*
X0502342Y0203750D03*
X0492342Y0203750D03*
X0482342Y0203750D03*
X0472342Y0203750D03*
X0462342Y0203750D03*
X0452342Y0203750D03*
X0402342Y0305750D03*
X0402342Y0315750D03*
X0402342Y0325750D03*
X0402342Y0335750D03*
X0402342Y0345750D03*
X0402342Y0355750D03*
X0360342Y0385750D03*
X0350342Y0385750D03*
X0340342Y0385750D03*
X0330342Y0385750D03*
X0320342Y0385750D03*
X0310342Y0385750D03*
X0300342Y0385750D03*
X0290342Y0385750D03*
X0280342Y0385750D03*
X0230342Y0355750D03*
X0230342Y0345750D03*
X0230342Y0335750D03*
X0230342Y0325750D03*
X0230342Y0315750D03*
X0230342Y0305750D03*
X0198342Y0225750D03*
X0188342Y0225750D03*
X0178342Y0225750D03*
X0168342Y0225750D03*
X0158342Y0225750D03*
X0148342Y0225750D03*
X0138342Y0225750D03*
X0128342Y0225750D03*
X0118342Y0225750D03*
X0108342Y0225750D03*
X0108342Y0203750D03*
X0118342Y0203750D03*
X0128342Y0203750D03*
X0138342Y0203750D03*
X0148342Y0203750D03*
X0158342Y0203750D03*
X0168342Y0203750D03*
X0178342Y0203750D03*
X0188342Y0203750D03*
X0230342Y0173750D03*
X0230342Y0163750D03*
X0230342Y0153750D03*
X0230342Y0143750D03*
X0230342Y0133750D03*
X0230342Y0123750D03*
X0058342Y0123750D03*
X0058342Y0133750D03*
X0058342Y0143750D03*
X0058342Y0153750D03*
X0058342Y0163750D03*
X0058342Y0173750D03*
X0058342Y0305750D03*
X0058342Y0315750D03*
X0058342Y0325750D03*
X0058342Y0335750D03*
X0058342Y0345750D03*
X0058342Y0355750D03*
X0108342Y0385750D03*
X0118342Y0385750D03*
X0128342Y0385750D03*
X0138342Y0385750D03*
X0148342Y0385750D03*
X0158342Y0385750D03*
X0168342Y0385750D03*
X0178342Y0385750D03*
X0188342Y0385750D03*
X0452342Y0385750D03*
X0462342Y0385750D03*
X0472342Y0385750D03*
X0482342Y0385750D03*
X0492342Y0385750D03*
X0502342Y0385750D03*
X0512342Y0385750D03*
X0522342Y0385750D03*
X0532342Y0385750D03*
M02*
